<mxfile host="app.diagrams.net" agent="Mozilla/5.0 (Windows NT 10.0; Win64; x64) AppleWebKit/537.36 (KHTML, like Gecko) Chrome/127.0.0.0 Safari/537.36 OPR/113.0.0.0" version="24.8.3">
  <diagram id="C5RBs43oDa-KdzZeNtuy" name="Page-1">
    <mxGraphModel dx="1682" dy="928" grid="1" gridSize="10" guides="1" tooltips="1" connect="1" arrows="1" fold="1" page="1" pageScale="1" pageWidth="827" pageHeight="1169" math="0" shadow="0">
      <root>
        <mxCell id="WIyWlLk6GJQsqaUBKTNV-0" />
        <mxCell id="WIyWlLk6GJQsqaUBKTNV-1" parent="WIyWlLk6GJQsqaUBKTNV-0" />
        <mxCell id="7Jgj73Fmt8MQ2ORQSD5d-0" value="" style="edgeStyle=orthogonalEdgeStyle;rounded=0;orthogonalLoop=1;jettySize=auto;html=1;" edge="1" parent="WIyWlLk6GJQsqaUBKTNV-1" source="7Jgj73Fmt8MQ2ORQSD5d-1" target="7Jgj73Fmt8MQ2ORQSD5d-2">
          <mxGeometry relative="1" as="geometry" />
        </mxCell>
        <mxCell id="7Jgj73Fmt8MQ2ORQSD5d-1" value="Початок" style="ellipse;whiteSpace=wrap;html=1;" vertex="1" parent="WIyWlLk6GJQsqaUBKTNV-1">
          <mxGeometry x="340" y="100" width="120" height="80" as="geometry" />
        </mxCell>
        <mxCell id="7Jgj73Fmt8MQ2ORQSD5d-4" style="edgeStyle=orthogonalEdgeStyle;rounded=0;orthogonalLoop=1;jettySize=auto;html=1;entryX=0.5;entryY=0;entryDx=0;entryDy=0;" edge="1" parent="WIyWlLk6GJQsqaUBKTNV-1" source="7Jgj73Fmt8MQ2ORQSD5d-2" target="7Jgj73Fmt8MQ2ORQSD5d-3">
          <mxGeometry relative="1" as="geometry" />
        </mxCell>
        <mxCell id="7Jgj73Fmt8MQ2ORQSD5d-2" value="H, M, h1, h2, h3,&lt;div&gt;m1, m2, m3&lt;/div&gt;" style="shape=internalStorage;whiteSpace=wrap;html=1;backgroundOutline=1;" vertex="1" parent="WIyWlLk6GJQsqaUBKTNV-1">
          <mxGeometry x="310" y="220" width="180" height="120" as="geometry" />
        </mxCell>
        <mxCell id="7Jgj73Fmt8MQ2ORQSD5d-8" value="" style="edgeStyle=orthogonalEdgeStyle;rounded=0;orthogonalLoop=1;jettySize=auto;html=1;" edge="1" parent="WIyWlLk6GJQsqaUBKTNV-1" source="7Jgj73Fmt8MQ2ORQSD5d-3" target="7Jgj73Fmt8MQ2ORQSD5d-5">
          <mxGeometry relative="1" as="geometry" />
        </mxCell>
        <mxCell id="7Jgj73Fmt8MQ2ORQSD5d-3" value="&lt;p&gt;Input: H, M&lt;/p&gt;" style="shape=parallelogram;perimeter=parallelogramPerimeter;whiteSpace=wrap;html=1;fixedSize=1;" vertex="1" parent="WIyWlLk6GJQsqaUBKTNV-1">
          <mxGeometry x="70" y="400" width="186.5" height="60" as="geometry" />
        </mxCell>
        <mxCell id="7Jgj73Fmt8MQ2ORQSD5d-9" value="" style="edgeStyle=orthogonalEdgeStyle;rounded=0;orthogonalLoop=1;jettySize=auto;html=1;" edge="1" parent="WIyWlLk6GJQsqaUBKTNV-1" source="7Jgj73Fmt8MQ2ORQSD5d-5" target="7Jgj73Fmt8MQ2ORQSD5d-6">
          <mxGeometry relative="1" as="geometry" />
        </mxCell>
        <mxCell id="7Jgj73Fmt8MQ2ORQSD5d-5" value="&lt;p&gt;Input: h1, m1&lt;/p&gt;" style="shape=parallelogram;perimeter=parallelogramPerimeter;whiteSpace=wrap;html=1;fixedSize=1;" vertex="1" parent="WIyWlLk6GJQsqaUBKTNV-1">
          <mxGeometry x="70" y="490" width="186.5" height="60" as="geometry" />
        </mxCell>
        <mxCell id="7Jgj73Fmt8MQ2ORQSD5d-10" value="" style="edgeStyle=orthogonalEdgeStyle;rounded=0;orthogonalLoop=1;jettySize=auto;html=1;" edge="1" parent="WIyWlLk6GJQsqaUBKTNV-1" source="7Jgj73Fmt8MQ2ORQSD5d-6" target="7Jgj73Fmt8MQ2ORQSD5d-7">
          <mxGeometry relative="1" as="geometry" />
        </mxCell>
        <mxCell id="7Jgj73Fmt8MQ2ORQSD5d-6" value="&lt;p&gt;Input: h2, m2&lt;/p&gt;" style="shape=parallelogram;perimeter=parallelogramPerimeter;whiteSpace=wrap;html=1;fixedSize=1;" vertex="1" parent="WIyWlLk6GJQsqaUBKTNV-1">
          <mxGeometry x="70" y="580" width="186.5" height="60" as="geometry" />
        </mxCell>
        <mxCell id="7Jgj73Fmt8MQ2ORQSD5d-12" style="edgeStyle=orthogonalEdgeStyle;rounded=0;orthogonalLoop=1;jettySize=auto;html=1;entryX=0.5;entryY=0;entryDx=0;entryDy=0;" edge="1" parent="WIyWlLk6GJQsqaUBKTNV-1" source="7Jgj73Fmt8MQ2ORQSD5d-7" target="7Jgj73Fmt8MQ2ORQSD5d-11">
          <mxGeometry relative="1" as="geometry">
            <Array as="points">
              <mxPoint x="335" y="700" />
              <mxPoint x="335" y="380" />
              <mxPoint x="524" y="380" />
            </Array>
          </mxGeometry>
        </mxCell>
        <mxCell id="7Jgj73Fmt8MQ2ORQSD5d-7" value="&lt;p&gt;Input: h3, m3&lt;/p&gt;" style="shape=parallelogram;perimeter=parallelogramPerimeter;whiteSpace=wrap;html=1;fixedSize=1;" vertex="1" parent="WIyWlLk6GJQsqaUBKTNV-1">
          <mxGeometry x="70" y="670" width="186.5" height="60" as="geometry" />
        </mxCell>
        <mxCell id="7Jgj73Fmt8MQ2ORQSD5d-14" value="" style="edgeStyle=orthogonalEdgeStyle;rounded=0;orthogonalLoop=1;jettySize=auto;html=1;" edge="1" parent="WIyWlLk6GJQsqaUBKTNV-1" source="7Jgj73Fmt8MQ2ORQSD5d-15" target="7Jgj73Fmt8MQ2ORQSD5d-13">
          <mxGeometry relative="1" as="geometry" />
        </mxCell>
        <mxCell id="7Jgj73Fmt8MQ2ORQSD5d-11" value="&lt;div style=&quot;line-height: 22px; white-space: pre; font-size: 10px;&quot;&gt;&lt;font style=&quot;font-size: 10px;&quot; face=&quot;Helvetica&quot;&gt;((H - (h1 + h2 + h3)) &amp;gt; 0)&lt;/font&gt;&lt;/div&gt;&lt;div style=&quot;line-height: 22px; white-space: pre; font-size: 10px;&quot;&gt;&lt;font style=&quot;font-size: 10px;&quot; face=&quot;Helvetica&quot;&gt;&amp;amp;&amp;amp;&lt;/font&gt;&lt;/div&gt;&lt;div style=&quot;line-height: 22px; white-space: pre; font-size: 10px;&quot;&gt;&lt;font style=&quot;font-size: 10px;&quot; face=&quot;Helvetica&quot;&gt;((M - (m1 + m2 + m3)) &amp;gt; 0)&lt;/font&gt;&lt;/div&gt;" style="rhombus;whiteSpace=wrap;html=1;" vertex="1" parent="WIyWlLk6GJQsqaUBKTNV-1">
          <mxGeometry x="414" y="420" width="220" height="140" as="geometry" />
        </mxCell>
        <mxCell id="7Jgj73Fmt8MQ2ORQSD5d-18" value="" style="edgeStyle=orthogonalEdgeStyle;rounded=0;orthogonalLoop=1;jettySize=auto;html=1;" edge="1" parent="WIyWlLk6GJQsqaUBKTNV-1" source="7Jgj73Fmt8MQ2ORQSD5d-20" target="7Jgj73Fmt8MQ2ORQSD5d-17">
          <mxGeometry relative="1" as="geometry" />
        </mxCell>
        <mxCell id="7Jgj73Fmt8MQ2ORQSD5d-22" value="" style="edgeStyle=orthogonalEdgeStyle;rounded=0;orthogonalLoop=1;jettySize=auto;html=1;exitX=1;exitY=0.5;exitDx=0;exitDy=0;" edge="1" parent="WIyWlLk6GJQsqaUBKTNV-1" source="7Jgj73Fmt8MQ2ORQSD5d-24" target="7Jgj73Fmt8MQ2ORQSD5d-21">
          <mxGeometry relative="1" as="geometry">
            <mxPoint x="710" y="710" as="sourcePoint" />
          </mxGeometry>
        </mxCell>
        <mxCell id="7Jgj73Fmt8MQ2ORQSD5d-13" value="&lt;div style=&quot;line-height: 22px; white-space: pre; font-size: 10px;&quot;&gt;&lt;div style=&quot;line-height: 22px;&quot;&gt;&lt;font face=&quot;Helvetica&quot;&gt;((h1 != 0) &amp;amp;&amp;amp; (m1 != 0))&lt;/font&gt;&lt;/div&gt;&lt;div style=&quot;line-height: 22px;&quot;&gt;&lt;font face=&quot;Helvetica&quot;&gt;|| ((h2 != 0) &amp;amp;&amp;amp; (m2 != 0))&lt;/font&gt;&lt;/div&gt;&lt;div style=&quot;line-height: 22px;&quot;&gt;&lt;font face=&quot;Helvetica&quot;&gt;|| ((h3 != 0) &amp;amp;&amp;amp; (m3 != 0))&lt;/font&gt;&lt;/div&gt;&lt;/div&gt;" style="rhombus;whiteSpace=wrap;html=1;" vertex="1" parent="WIyWlLk6GJQsqaUBKTNV-1">
          <mxGeometry x="414" y="640" width="220" height="140" as="geometry" />
        </mxCell>
        <mxCell id="7Jgj73Fmt8MQ2ORQSD5d-16" value="" style="edgeStyle=orthogonalEdgeStyle;rounded=0;orthogonalLoop=1;jettySize=auto;html=1;endArrow=none;endFill=0;exitX=0.5;exitY=1;exitDx=0;exitDy=0;" edge="1" parent="WIyWlLk6GJQsqaUBKTNV-1" source="7Jgj73Fmt8MQ2ORQSD5d-11" target="7Jgj73Fmt8MQ2ORQSD5d-15">
          <mxGeometry relative="1" as="geometry">
            <mxPoint x="524" y="570" as="sourcePoint" />
            <mxPoint x="524" y="640" as="targetPoint" />
          </mxGeometry>
        </mxCell>
        <mxCell id="7Jgj73Fmt8MQ2ORQSD5d-15" value="True" style="text;html=1;align=center;verticalAlign=middle;whiteSpace=wrap;rounded=0;" vertex="1" parent="WIyWlLk6GJQsqaUBKTNV-1">
          <mxGeometry x="494" y="585" width="60" height="30" as="geometry" />
        </mxCell>
        <mxCell id="7Jgj73Fmt8MQ2ORQSD5d-17" value="Output: NO" style="shape=parallelogram;perimeter=parallelogramPerimeter;whiteSpace=wrap;html=1;fixedSize=1;" vertex="1" parent="WIyWlLk6GJQsqaUBKTNV-1">
          <mxGeometry x="430.75" y="840" width="186.5" height="60" as="geometry" />
        </mxCell>
        <mxCell id="7Jgj73Fmt8MQ2ORQSD5d-19" value="" style="edgeStyle=orthogonalEdgeStyle;rounded=0;orthogonalLoop=1;jettySize=auto;html=1;entryX=0.5;entryY=0;entryDx=0;entryDy=0;endArrow=none;endFill=0;" edge="1" parent="WIyWlLk6GJQsqaUBKTNV-1" source="7Jgj73Fmt8MQ2ORQSD5d-13" target="7Jgj73Fmt8MQ2ORQSD5d-20">
          <mxGeometry relative="1" as="geometry">
            <mxPoint x="524" y="780" as="sourcePoint" />
            <mxPoint x="524" y="840" as="targetPoint" />
            <Array as="points">
              <mxPoint x="524" y="790" />
            </Array>
          </mxGeometry>
        </mxCell>
        <mxCell id="7Jgj73Fmt8MQ2ORQSD5d-20" value="True" style="text;html=1;align=center;verticalAlign=middle;whiteSpace=wrap;rounded=0;" vertex="1" parent="WIyWlLk6GJQsqaUBKTNV-1">
          <mxGeometry x="494" y="790" width="60" height="30" as="geometry" />
        </mxCell>
        <mxCell id="7Jgj73Fmt8MQ2ORQSD5d-21" value="Output: YES" style="shape=parallelogram;perimeter=parallelogramPerimeter;whiteSpace=wrap;html=1;fixedSize=1;" vertex="1" parent="WIyWlLk6GJQsqaUBKTNV-1">
          <mxGeometry x="720" y="680" width="186.5" height="60" as="geometry" />
        </mxCell>
        <mxCell id="7Jgj73Fmt8MQ2ORQSD5d-23" value="" style="edgeStyle=orthogonalEdgeStyle;rounded=0;orthogonalLoop=1;jettySize=auto;html=1;endArrow=none;endFill=0;" edge="1" parent="WIyWlLk6GJQsqaUBKTNV-1" source="7Jgj73Fmt8MQ2ORQSD5d-13" target="7Jgj73Fmt8MQ2ORQSD5d-24">
          <mxGeometry relative="1" as="geometry">
            <mxPoint x="634" y="710" as="sourcePoint" />
            <mxPoint x="720" y="710" as="targetPoint" />
          </mxGeometry>
        </mxCell>
        <mxCell id="7Jgj73Fmt8MQ2ORQSD5d-24" value="False" style="text;html=1;align=center;verticalAlign=middle;whiteSpace=wrap;rounded=0;" vertex="1" parent="WIyWlLk6GJQsqaUBKTNV-1">
          <mxGeometry x="660" y="695" width="40" height="30" as="geometry" />
        </mxCell>
        <mxCell id="7Jgj73Fmt8MQ2ORQSD5d-26" value="Output: NO" style="shape=parallelogram;perimeter=parallelogramPerimeter;whiteSpace=wrap;html=1;fixedSize=1;" vertex="1" parent="WIyWlLk6GJQsqaUBKTNV-1">
          <mxGeometry x="720" y="460" width="186.5" height="60" as="geometry" />
        </mxCell>
        <mxCell id="7Jgj73Fmt8MQ2ORQSD5d-27" value="" style="edgeStyle=orthogonalEdgeStyle;rounded=0;orthogonalLoop=1;jettySize=auto;html=1;exitX=1;exitY=0.5;exitDx=0;exitDy=0;" edge="1" parent="WIyWlLk6GJQsqaUBKTNV-1" source="7Jgj73Fmt8MQ2ORQSD5d-29">
          <mxGeometry relative="1" as="geometry">
            <mxPoint x="710" y="490" as="sourcePoint" />
            <mxPoint x="730" y="490" as="targetPoint" />
          </mxGeometry>
        </mxCell>
        <mxCell id="7Jgj73Fmt8MQ2ORQSD5d-28" value="" style="edgeStyle=orthogonalEdgeStyle;rounded=0;orthogonalLoop=1;jettySize=auto;html=1;endArrow=none;endFill=0;" edge="1" parent="WIyWlLk6GJQsqaUBKTNV-1" target="7Jgj73Fmt8MQ2ORQSD5d-29">
          <mxGeometry relative="1" as="geometry">
            <mxPoint x="634" y="490" as="sourcePoint" />
            <mxPoint x="720" y="490" as="targetPoint" />
          </mxGeometry>
        </mxCell>
        <mxCell id="7Jgj73Fmt8MQ2ORQSD5d-29" value="False" style="text;html=1;align=center;verticalAlign=middle;whiteSpace=wrap;rounded=0;" vertex="1" parent="WIyWlLk6GJQsqaUBKTNV-1">
          <mxGeometry x="660" y="475" width="40" height="30" as="geometry" />
        </mxCell>
      </root>
    </mxGraphModel>
  </diagram>
</mxfile>
